<svg xmlns="http://www.w3.org/2000/svg" style="max-height: 500px" viewBox="39.168000000000006 31.104 120.96 122.68799999999999" y="0px" x="0px" id="Layer_1" version="1.1" width="120.96" height="122.68799999999999">
  <style type="text/css">
	.st0{fill:#FFFFFF;}
	.st1{fill:#75C044;}
	.st2{fill:none;stroke:#FFFFFF;stroke-width:2.0749;stroke-miterlimit:10;}
</style>
  <g>
    <path d="M 100.1 67.7 c -6.1 0 -11 10 -11 22.3 s 4.9 23.7 11 23.7" class="st2"/>
    <g>
      <path d="M 123.1 90.9 c 0 -6.1 -10 -11 -22.3 -11 s -23.7 4.9 -23.7 11" class="st2"/>
      <path d="M 123.1 90.8 c 0 6.1 -10 11.1 -22.3 11.1 s -23.7 -5 -23.7 -11.1" class="st2"/>
    </g>
    <circle r="23" cy="90.7" cx="100.1" class="st2"/>
    <path d="M 100.1 67.7 c 6.1 0 11.1 10 11.1 22.3 s -5 23.7 -11.1 23.7" class="st2"/>
  </g>
  <path d="M 139.5 36.7 l -78.8 0 c -7.1 0 -12.9 5.9 -12.9 13.1 v 31.3 h 19.1 c 3.4 -15.2 17 -25.3 33.2 -25.3 s 29.8 10.1 33.2 25.3 h 19.1 V 49.8 C 152.5 42.6 146.6 36.7 139.5 36.7 z" class="st1"/>
  <path d="M 100.1 125.6 c -16.6 0 -30.5 -10.6 -33.4 -26.3 H 47.8 v 32.3 c 0 7.2 5.8 13.1 12.9 13.1 l 78.8 0 c 7.1 0 12.9 -5.9 12.9 -13.1 V 99.3 h -18.9 C 130.6 115 116.8 125.6 100.1 125.6 z" class="st0"/>
</svg>